<svg xmlns="http://www.w3.org/2000/svg" xmlns:xlink="http://www.w3.org/1999/xlink" viewBox="0 0 200 200"><defs><style>.cls-1{fill:none;}.cls-2{fill:#898989;}.cls-3{fill:#58aad5;}.cls-4{fill:#2e668f;}.cls-5{fill:#222;}.cls-6{fill:#a96663;}.cls-7{fill:#fbed21;}.cls-8{clip-path:url(#clip-path);}.cls-9{fill:#d3a762;}.cls-10{clip-path:url(#clip-path-2);}.cls-11{fill:#90524f;}.cls-12{fill:#b4dd8b;}.cls-13{clip-path:url(#clip-path-3);}.cls-14{fill:#7f9f62;}</style><clipPath id="clip-path"><path class="cls-1" d="M97.17,147.39l-24.45-3.78a3.48,3.48,0,0,0-1.66.17l-11.19,3.83a1,1,0,0,0-.6,1l-.11,9.82a1,1,0,0,0,.58,1l11,4.34a3.33,3.33,0,0,0,1.87.19l24.51-4.35a1,1,0,0,0,.72-1l.1-10.15A1,1,0,0,0,97.17,147.39Z"/></clipPath><clipPath id="clip-path-2"><path class="cls-1" d="M54.3,111,47.17,134.7a3.33,3.33,0,0,0-.06,1.66L49.35,148a1,1,0,0,0,.89.73L60,150.18a1,1,0,0,0,1.06-.44l5.81-10.25a3.39,3.39,0,0,0,.45-1.83l-.91-24.87a1,1,0,0,0-.9-.85l-10-1.52A1,1,0,0,0,54.3,111Z"/></clipPath><clipPath id="clip-path-3"><path class="cls-1" d="M48.63,160.1l22.2-10.94a3.36,3.36,0,0,0,1.25-1.09l7-9.56a1,1,0,0,0-.07-1.15l-5.55-8.1a1,1,0,0,0-1-.48l-11.46,2.74a3.42,3.42,0,0,0-1.64.91L41.71,150.06a1,1,0,0,0,0,1.24l5.74,8.37A1,1,0,0,0,48.63,160.1Z"/></clipPath></defs><g id="Layer_2" data-name="Layer 2"><rect class="cls-2" x="121.83" y="32.72" width="7.43" height="7.68" transform="translate(0.11 -0.36) rotate(0.16)"/><rect class="cls-2" x="136.59" y="32.69" width="7.43" height="7.68" transform="translate(0.11 -0.4) rotate(0.16)"/><rect class="cls-2" x="151.36" y="32.68" width="7.43" height="7.68" transform="translate(0.11 -0.45) rotate(0.16)"/><path class="cls-3" d="M31.3,50V85.31h68.9a9.58,9.58,0,0,1,9.57,9.57v29h57.78V50A9.58,9.58,0,0,0,158,40.37H40.88A9.58,9.58,0,0,0,31.3,50Z"/><rect class="cls-4" x="31.27" y="85.31" width="28.42" height="4.86"/><rect class="cls-5" x="38.99" y="90.17" width="12.98" height="4.86"/><rect class="cls-2" x="43.27" y="95.03" width="4" height="28.81"/><rect class="cls-4" x="167.52" y="87.74" width="4.67" height="20.06"/><rect class="cls-4" x="26.6" y="48.35" width="4.67" height="20.06"/><rect class="cls-4" x="167.52" y="48.35" width="4.67" height="11.05"/><rect class="cls-4" x="167.52" y="61.56" width="4.67" height="11.05"/><rect class="cls-4" x="17.93" y="123.84" width="164.36" height="13.8"/><path class="cls-5" d="M140.35,85.36a12.53,12.53,0,1,0,12.49,12.56A12.53,12.53,0,0,0,140.35,85.36Zm0,15.08a2.55,2.55,0,1,1,2.56-2.54A2.56,2.56,0,0,1,140.3,100.44Z"/><rect class="cls-5" x="89.33" y="48.32" width="1.84" height="18.74" transform="translate(0.17 -0.26) rotate(0.16)"/><rect class="cls-5" x="93.96" y="48.33" width="1.84" height="18.74" transform="matrix(1, 0, 0, 1, 0.17, -0.27)"/><rect class="cls-5" x="98.58" y="48.35" width="1.84" height="18.74" transform="matrix(1, 0, 0, 1, 0.17, -0.29)"/><rect class="cls-5" x="103.2" y="48.36" width="1.84" height="18.74" transform="translate(0.17 -0.3) rotate(0.16)"/><rect class="cls-5" x="107.82" y="48.37" width="1.84" height="18.74" transform="translate(0.17 -0.31) rotate(0.16)"/><rect class="cls-5" x="52.92" y="102.88" width="10.25" height="54.83" transform="translate(19.54 -7.05) rotate(8.35)"/><path class="cls-6" d="M54.47,111.46l-7,23.72a3.33,3.33,0,0,0-.06,1.66l2.29,11.61a1,1,0,0,0,.89.73l9.72,1.43a1,1,0,0,0,1-.44l5.78-10.28a3.36,3.36,0,0,0,.44-1.83l-1-24.87a1,1,0,0,0-.9-.84l-10-1.48A1,1,0,0,0,54.47,111.46Z"/><rect class="cls-5" x="73.86" y="125.36" width="10.25" height="54.83" transform="translate(232.6 75.43) rotate(90.61)"/><path class="cls-7" d="M97.18,146.71l-24.46-3.78a3.33,3.33,0,0,0-1.65.16l-11.19,3.84a1,1,0,0,0-.61,1l-.1,9.82a1,1,0,0,0,.57,1l11,4.33a3.44,3.44,0,0,0,1.87.2l24.51-4.35a1,1,0,0,0,.72-1l.11-10.15A1,1,0,0,0,97.18,146.71Z"/><g class="cls-8"><rect class="cls-9" x="44.56" y="152.85" width="29.3" height="0.81" transform="matrix(0.01, -1, 1, 0.01, -94.76, 210.56)"/><rect class="cls-9" x="46.22" y="152.87" width="29.3" height="0.81" transform="translate(-93.15 212.24) rotate(-89.29)"/><rect class="cls-9" x="47.87" y="152.89" width="29.3" height="0.81" transform="translate(-91.53 213.92) rotate(-89.29)"/><rect class="cls-9" x="49.53" y="152.91" width="29.3" height="0.81" transform="translate(-89.92 215.59) rotate(-89.29)"/><rect class="cls-9" x="51.19" y="152.93" width="29.3" height="0.81" transform="translate(-88.3 217.27) rotate(-89.29)"/><rect class="cls-9" x="52.84" y="152.95" width="29.3" height="0.81" transform="translate(-86.68 218.95) rotate(-89.29)"/><rect class="cls-9" x="54.5" y="152.97" width="29.3" height="0.81" transform="translate(-85.07 220.62) rotate(-89.29)"/><rect class="cls-9" x="56.16" y="152.99" width="29.3" height="0.81" transform="translate(-83.45 222.3) rotate(-89.29)"/><rect class="cls-9" x="57.81" y="153.01" width="29.3" height="0.81" transform="translate(-81.84 223.98) rotate(-89.29)"/><rect class="cls-9" x="59.47" y="153.03" width="29.3" height="0.81" transform="translate(-80.22 225.65) rotate(-89.29)"/><rect class="cls-9" x="61.13" y="153.05" width="29.3" height="0.81" transform="translate(-78.61 227.33) rotate(-89.29)"/><rect class="cls-9" x="62.78" y="153.07" width="29.3" height="0.81" transform="translate(-76.99 229.01) rotate(-89.29)"/><rect class="cls-9" x="64.44" y="153.09" width="29.3" height="0.81" transform="translate(-75.37 230.68) rotate(-89.29)"/><rect class="cls-9" x="66.1" y="153.11" width="29.3" height="0.81" transform="translate(-73.76 232.36) rotate(-89.29)"/><rect class="cls-9" x="67.75" y="153.13" width="29.3" height="0.81" transform="translate(-72.14 234.04) rotate(-89.29)"/><rect class="cls-9" x="69.41" y="153.16" width="29.3" height="0.81" transform="translate(-70.53 235.71) rotate(-89.29)"/><rect class="cls-9" x="71.07" y="153.18" width="29.3" height="0.81" transform="translate(-68.91 237.39) rotate(-89.29)"/><rect class="cls-9" x="72.72" y="153.2" width="29.3" height="0.81" transform="translate(-67.3 239.07) rotate(-89.29)"/><rect class="cls-9" x="74.38" y="153.22" width="29.3" height="0.81" transform="translate(-65.68 240.74) rotate(-89.29)"/><rect class="cls-9" x="76.04" y="153.24" width="29.3" height="0.81" transform="translate(-64.06 242.42) rotate(-89.29)"/><rect class="cls-9" x="77.69" y="153.26" width="29.3" height="0.81" transform="translate(-62.45 244.1) rotate(-89.29)"/><rect class="cls-9" x="79.35" y="153.28" width="29.3" height="0.81" transform="translate(-60.83 245.77) rotate(-89.29)"/><rect class="cls-9" x="81.01" y="153.3" width="29.3" height="0.81" transform="translate(-59.22 247.45) rotate(-89.29)"/><rect class="cls-9" x="82.66" y="153.32" width="29.3" height="0.81" transform="translate(-57.6 249.13) rotate(-89.29)"/></g><g class="cls-10"><rect class="cls-11" x="54.44" y="134.77" width="0.81" height="29.3" transform="matrix(0.15, -0.99, 0.99, 0.15, -101.13, 181.1)"/><rect class="cls-11" x="54.69" y="133.13" width="0.81" height="29.3" transform="translate(-99.3 179.96) rotate(-81.33)"/><rect class="cls-11" x="54.94" y="131.49" width="0.81" height="29.3" transform="translate(-97.47 178.81) rotate(-81.33)"/><rect class="cls-11" x="55.19" y="129.85" width="0.81" height="29.3" transform="translate(-95.64 177.67) rotate(-81.33)"/><rect class="cls-11" x="55.44" y="128.22" width="0.81" height="29.3" transform="translate(-93.81 176.53) rotate(-81.33)"/><rect class="cls-11" x="55.69" y="126.58" width="0.81" height="29.3" transform="translate(-91.98 175.38) rotate(-81.33)"/><rect class="cls-11" x="55.94" y="124.94" width="0.81" height="29.3" transform="translate(-90.14 174.24) rotate(-81.33)"/><rect class="cls-11" x="56.19" y="123.3" width="0.81" height="29.3" transform="translate(-88.31 173.09) rotate(-81.33)"/><rect class="cls-11" x="56.44" y="121.66" width="0.81" height="29.3" transform="translate(-86.48 171.95) rotate(-81.33)"/><rect class="cls-11" x="56.69" y="120.03" width="0.81" height="29.3" transform="translate(-84.65 170.81) rotate(-81.33)"/><rect class="cls-11" x="56.94" y="118.39" width="0.81" height="29.3" transform="translate(-82.82 169.66) rotate(-81.33)"/><rect class="cls-11" x="57.19" y="116.75" width="0.81" height="29.3" transform="translate(-80.99 168.52) rotate(-81.33)"/><rect class="cls-11" x="57.44" y="115.11" width="0.81" height="29.3" transform="translate(-79.16 167.37) rotate(-81.33)"/><rect class="cls-11" x="57.69" y="113.47" width="0.81" height="29.3" transform="translate(-77.33 166.23) rotate(-81.33)"/><rect class="cls-11" x="57.94" y="111.84" width="0.81" height="29.3" transform="translate(-75.5 165.09) rotate(-81.33)"/><rect class="cls-11" x="58.19" y="110.2" width="0.81" height="29.3" transform="translate(-73.66 163.94) rotate(-81.33)"/><rect class="cls-11" x="58.44" y="108.56" width="0.81" height="29.3" transform="translate(-71.83 162.8) rotate(-81.33)"/><rect class="cls-11" x="58.69" y="106.92" width="0.81" height="29.3" transform="translate(-70 161.66) rotate(-81.33)"/><rect class="cls-11" x="58.94" y="105.29" width="0.81" height="29.3" transform="translate(-68.17 160.51) rotate(-81.33)"/><rect class="cls-11" x="59.19" y="103.65" width="0.81" height="29.3" transform="translate(-66.34 159.37) rotate(-81.33)"/><rect class="cls-11" x="59.44" y="102.01" width="0.81" height="29.3" transform="translate(-64.51 158.22) rotate(-81.33)"/><rect class="cls-11" x="59.69" y="100.37" width="0.81" height="29.3" transform="translate(-62.68 157.08) rotate(-81.33)"/><rect class="cls-11" x="59.94" y="98.73" width="0.81" height="29.3" transform="matrix(0.15, -0.99, 0.99, 0.15, -60.84, 155.94)"/><rect class="cls-11" x="60.19" y="97.1" width="0.81" height="29.3" transform="translate(-59.01 154.79) rotate(-81.33)"/></g><rect class="cls-5" x="55.22" y="117.73" width="10.25" height="54.83" transform="translate(-24.77 277.31) rotate(-124.64)"/><path class="cls-12" d="M49,160.61l22.15-11a3.45,3.45,0,0,0,1.25-1.09l6.93-9.59a1,1,0,0,0-.07-1.15l-5.58-8.08a1.06,1.06,0,0,0-1.05-.48L61.18,132a3.44,3.44,0,0,0-1.64.92L42,150.59a1,1,0,0,0,0,1.24l5.77,8.36A1,1,0,0,0,49,160.61Z"/><g class="cls-13"><rect class="cls-14" x="75.95" y="118.86" width="0.81" height="29.3" transform="translate(-61.97 66.28) rotate(-34.31)"/><rect class="cls-14" x="74.59" y="119.8" width="0.81" height="29.3" transform="translate(-62.74 65.67) rotate(-34.31)"/><rect class="cls-14" x="73.22" y="120.73" width="0.81" height="29.3" transform="translate(-63.5 65.06) rotate(-34.31)"/><rect class="cls-14" x="71.85" y="121.66" width="0.81" height="29.3" transform="translate(-64.27 64.45) rotate(-34.31)"/><rect class="cls-14" x="70.48" y="122.6" width="0.81" height="29.3" transform="translate(-65.03 63.84) rotate(-34.31)"/><rect class="cls-14" x="69.11" y="123.53" width="0.81" height="29.3" transform="translate(-65.8 63.23) rotate(-34.31)"/><rect class="cls-14" x="67.74" y="124.47" width="0.81" height="29.3" transform="translate(-66.56 62.62) rotate(-34.31)"/><rect class="cls-14" x="66.37" y="125.4" width="0.81" height="29.3" transform="translate(-67.33 62.02) rotate(-34.31)"/><rect class="cls-14" x="65.01" y="126.33" width="0.81" height="29.3" transform="translate(-68.09 61.41) rotate(-34.31)"/><rect class="cls-14" x="63.64" y="127.27" width="0.81" height="29.3" transform="translate(-68.85 60.8) rotate(-34.31)"/><rect class="cls-14" x="62.27" y="128.2" width="0.81" height="29.3" transform="translate(-69.62 60.19) rotate(-34.31)"/><rect class="cls-14" x="60.9" y="129.14" width="0.81" height="29.3" transform="translate(-70.38 59.58) rotate(-34.31)"/><rect class="cls-14" x="59.53" y="130.07" width="0.81" height="29.3" transform="translate(-71.15 58.97) rotate(-34.31)"/><rect class="cls-14" x="58.16" y="131" width="0.81" height="29.3" transform="translate(-71.91 58.36) rotate(-34.31)"/><rect class="cls-14" x="56.8" y="131.94" width="0.81" height="29.3" transform="translate(-72.68 57.75) rotate(-34.31)"/><rect class="cls-14" x="55.43" y="132.87" width="0.81" height="29.3" transform="translate(-73.44 57.14) rotate(-34.31)"/><rect class="cls-14" x="54.06" y="133.81" width="0.81" height="29.3" transform="translate(-74.21 56.54) rotate(-34.31)"/><rect class="cls-14" x="52.69" y="134.74" width="0.81" height="29.3" transform="translate(-74.97 55.93) rotate(-34.31)"/><rect class="cls-14" x="51.32" y="135.67" width="0.81" height="29.3" transform="translate(-75.74 55.32) rotate(-34.31)"/><rect class="cls-14" x="49.95" y="136.61" width="0.81" height="29.3" transform="translate(-76.5 54.71) rotate(-34.31)"/><rect class="cls-14" x="48.58" y="137.54" width="0.81" height="29.3" transform="translate(-77.27 54.1) rotate(-34.31)"/><rect class="cls-14" x="47.22" y="138.48" width="0.81" height="29.3" transform="translate(-78.03 53.49) rotate(-34.31)"/><rect class="cls-14" x="45.85" y="139.41" width="0.81" height="29.3" transform="matrix(0.83, -0.56, 0.56, 0.83, -78.79, 52.88)"/><rect class="cls-14" x="44.48" y="140.34" width="0.81" height="29.3" transform="translate(-79.56 52.27) rotate(-34.31)"/></g></g></svg>