<svg xmlns="http://www.w3.org/2000/svg" viewBox="0 0 193.29 109.67"><defs><style>.cls-1{fill:#4ad17a;}.cls-2{fill:#00bf5c;}.cls-3{fill:none;stroke:#ffd17a;stroke-miterlimit:10;stroke-width:5px;}.cls-4{fill:#00825c;}.cls-5{fill:gray;}.cls-6{fill:#ffd17a;}</style></defs><g id="Layer_4" data-name="Layer 4"><polygon class="cls-1" points="24.7 99.17 19.65 98.96 22.58 89.59 25.51 80.23 27.63 89.81 29.64 98.96 24.7 99.17"/><polygon class="cls-1" points="23.7 95.52 19.65 98.96 16.05 89.38 12.46 80.25 20.12 86.38 27.77 92.52 23.7 95.52"/><polygon class="cls-1" points="24.88 97.27 20.12 95.58 25.67 87.49 31.23 79.4 30.43 89.18 29.64 98.96 24.88 97.27"/><polygon class="cls-2" points="173.07 97.91 168.02 97.7 170.95 88.33 173.87 78.97 176 88.55 178.01 97.7 173.07 97.91"/><polygon class="cls-2" points="172.07 94.26 168.02 97.7 164.41 88.12 160.83 78.98 168.48 85.12 176.14 91.26 172.07 94.26"/><polygon class="cls-2" points="173.25 96.01 168.48 94.31 174.04 86.22 179.59 78.14 178.8 87.92 178.01 97.7 173.25 96.01"/><circle class="cls-3" cx="46.04" cy="72.12" r="28.22"/><circle class="cls-4" cx="47.2" cy="71.49" r="12.27"/><circle class="cls-4" cx="143.11" cy="71.32" r="12.27"/><circle class="cls-3" cx="143.11" cy="71.49" r="28.22"/><path class="cls-5" d="M142.55,70.65l1.89-.54L129.2,11.25a17,17,0,0,0-3-5.93C124.19,3.16,111,4.15,111,4.15l.83,1.73,13.07.55s1.4,1.29,4.52,14.11S142.55,70.65,142.55,70.65Z"/><rect class="cls-5" x="110.18" y="14.29" width="2.62" height="63.41" transform="translate(53.58 -59.8) rotate(38.89)"/><polygon class="cls-5" points="93.22 68.6 46.83 68.6 47.67 72.19 92.61 71.49 93.22 68.6"/><rect class="cls-5" x="35.18" y="48.96" width="50.54" height="2.79" transform="translate(135.81 27.74) rotate(123.5)"/><rect class="cls-5" x="51.61" y="42.56" width="58.3" height="2.81" transform="translate(72.02 135.49) rotate(-113.1)"/><rect class="cls-5" x="61.74" y="15.79" width="21.96" height="2.3"/><rect class="cls-5" x="7.29" y="97.63" width="179.72" height="5.95"/><rect class="cls-6" x="148.22" y="99.77" width="35.44" height="1.67"/><rect class="cls-6" x="63.04" y="99.77" width="35.44" height="1.67"/><rect class="cls-6" x="7.29" y="99.77" width="29.12" height="1.67"/></g></svg>