<svg xmlns="http://www.w3.org/2000/svg" viewBox="0 0 135.15 210.51"><defs><style>.cls-1{fill:#00825c;}.cls-2{fill:#fff;}.cls-3{fill:#006837;}.cls-4{fill:#ffd17a;}</style></defs><g id="Layer_4" data-name="Layer 4"><path class="cls-1" d="M103.56,116.73s1,9.43,8.91,19.46A106.8,106.8,0,0,1,124,153.74a18.4,18.4,0,0,1-1.29,15.16,21.83,21.83,0,0,1-12.53,9.79s-7.1,3.34-16-1.19-10.71-11.7-10.71-11.7a15.13,15.13,0,0,1,0-13.37A53.14,53.14,0,0,1,91.81,140s6.44-6.36,9.3-13.73S103.56,116.73,103.56,116.73Z"/><rect class="cls-2" x="102.29" y="139.88" width="2.32" height="33.73"/><path class="cls-3" d="M95.5,164.93a13.35,13.35,0,0,0,6.38,1.66c3.63,0,5.76-1.77,5.76-4.33,0-2.38-1.47-3.74-5.19-5-4.5-1.47-7.28-3.62-7.28-7.2,0-4,3.56-6.9,8.91-6.9a13.38,13.38,0,0,1,6.09,1.24l-1,2.68a11.72,11.72,0,0,0-5.23-1.21c-3.76,0-5.19,2.08-5.19,3.81,0,2.37,1.68,3.54,5.48,4.9,4.65,1.66,7,3.73,7,7.46,0,3.92-3.14,7.31-9.64,7.31a15.11,15.11,0,0,1-7-1.62Z"/><path class="cls-1" d="M76.05,58.93S77.3,70.34,86.83,82.47s13.91,21.23,13.91,21.23A22.26,22.26,0,0,1,99.18,122,26.41,26.41,0,0,1,84,133.88s-8.59,4.05-19.38-1.44-13-14.15-13-14.15a18.32,18.32,0,0,1,0-16.18,64.1,64.1,0,0,1,10.15-15s7.79-7.7,11.25-16.61S76.05,58.93,76.05,58.93Z"/><rect class="cls-2" x="74.51" y="86.93" width="2.81" height="40.81"/><path class="cls-3" d="M66.3,117.24a16.24,16.24,0,0,0,7.71,2c4.4,0,7-2.15,7-5.25,0-2.87-1.78-4.51-6.28-6.11-5.44-1.78-8.8-4.37-8.8-8.71,0-4.78,4.3-8.34,10.78-8.34a16.16,16.16,0,0,1,7.37,1.51l-1.19,3.23a14.24,14.24,0,0,0-6.33-1.46c-4.55,0-6.28,2.51-6.28,4.61,0,2.87,2,4.29,6.63,5.93,5.63,2,8.5,4.51,8.5,9,0,4.75-3.81,8.85-11.67,8.85a18.42,18.42,0,0,1-8.5-2Z"/><path class="cls-1" d="M60.39,136.57s1,8.85,8.37,18.26A99.83,99.83,0,0,1,79.54,171.3a17.27,17.27,0,0,1-1.21,14.23,20.47,20.47,0,0,1-11.76,9.18s-6.66,3.14-15-1.12-10.06-11-10.06-11a14.23,14.23,0,0,1,0-12.55,49.94,49.94,0,0,1,7.88-11.65s6-6,8.73-12.89S60.39,136.57,60.39,136.57Z"/><rect class="cls-2" x="59.19" y="158.29" width="2.18" height="31.65"/><path class="cls-3" d="M52.83,181.8a12.53,12.53,0,0,0,6,1.56c3.41,0,5.41-1.67,5.41-4.07,0-2.23-1.38-3.5-4.87-4.74-4.22-1.38-6.83-3.4-6.83-6.76,0-3.71,3.34-6.47,8.36-6.47a12.58,12.58,0,0,1,5.72,1.17L65.68,165a11.07,11.07,0,0,0-4.91-1.13c-3.53,0-4.87,1.94-4.87,3.57,0,2.23,1.57,3.33,5.14,4.6,4.37,1.56,6.59,3.5,6.59,7,0,3.68-2.95,6.86-9,6.86a14.26,14.26,0,0,1-6.6-1.52Z"/><path class="cls-4" d="M67.94,56.78H88.15V30.2s1.37-4.52-6.84-15.55S40.94,7.13,40.94,7.13L7.4,6.6V22.67H62s5.85,0,6,5.52S67.94,56.78,67.94,56.78Z"/></g></svg>