<svg id="组_14" data-name="组 14" xmlns="http://www.w3.org/2000/svg" viewBox="0 0 374.73 200.53"><defs><style>.cls-1{fill:#92cff0;}</style></defs><title>blue-cloud</title><g id="组_13" data-name="组 13"><path id="路径_12" data-name="路径 12" class="cls-1" d="M-706.75,132.86s13.91-43.23,74.91-37.35c0,0,63.25,10.22,45.4,43.53,0,0,61.06-6.49,57.41,39.27s-57.31,53.52-57.31,53.52,14.69,27.92-56.1,40.54-79.7-28.24-79.7-28.24-7.68,51.92-70.94,42.31-41.42-42.28-43.11-45.38-58.37,38.06-67.22-16.42c0,0-7.26-31.59,68.59-28.73,0,0-42.19-4.54-16.89-44s48.55-12.74,48.55-12.74,16.84-60.53,57.28-51S-706.75,132.86-706.75,132.86Z" transform="translate(903.6 -87.1)"/></g></svg>