<svg id="Layer_1" data-name="Layer 1" xmlns="http://www.w3.org/2000/svg" viewBox="0 0 276.5 254.5"><defs><style>.cls-1{fill:#efd40f;}.cls-2{fill:#efd41c;}.cls-3{fill:none;}.cls-4{fill:#784f4d;}.cls-5{fill:#fff;}</style></defs><title>co2</title><path class="cls-1" d="M365.11,359" transform="translate(-225.95 -426.41)"/><path class="cls-2" d="M365.11,358.19" transform="translate(-225.95 -426.41)"/><path class="cls-3" d="M270.07,296.93" transform="translate(-225.95 -426.41)"/><path class="cls-4" d="M502.45,535.8c0-34-26.94-61.62-60.18-61.62A58.69,58.69,0,0,0,424.21,477a69.55,69.55,0,0,0-136.32,14.44,53.32,53.32,0,1,0-9.6,105.94v0h5v12.76h-9.21l27.65,27.75,27.64-27.75h-9.85V597.41h26.35v33.88h-.16v21.86h-9.2l27.64,27.76,27.65-27.76H382V597.41h26.7v12.76h-9.2l27.64,27.75,27.65-27.75h-9.86V597.34C476.93,595.92,502.45,568.92,502.45,535.8Z" transform="translate(-225.95 -426.41)"/><path class="cls-5" d="M329.93,566.21c-2.84,1.42-8.53,2.84-15.82,2.84-16.89,0-29.61-10.66-29.61-30.31,0-18.76,12.72-31.47,31.3-31.47,7.46,0,12.17,1.6,14.22,2.67l-1.87,6.31a28,28,0,0,0-12.09-2.49c-14,0-23.38,9-23.38,24.71,0,14.67,8.45,24.09,23,24.09a30.8,30.8,0,0,0,12.62-2.49Z" transform="translate(-225.95 -426.41)"/><path class="cls-5" d="M389,537.58c0,20.63-12.53,31.56-27.82,31.56-15.83,0-26.94-12.27-26.94-30.4,0-19,11.82-31.47,27.82-31.47C378.38,507.27,389,519.8,389,537.58Zm-46.49,1c0,12.8,6.93,24.27,19.11,24.27s19.2-11.29,19.2-24.89c0-11.91-6.22-24.36-19.11-24.36S342.47,525.4,342.47,538.56Z" transform="translate(-225.95 -426.41)"/><path class="cls-5" d="M396.25,568.16v-4.8l6.14-6c14.75-14,21.42-21.52,21.51-30.23,0-5.87-2.85-11.29-11.47-11.29-5.24,0-9.6,2.67-12.27,4.89l-2.49-5.51A25.35,25.35,0,0,1,414,509.4c12.45,0,17.69,8.54,17.69,16.8,0,10.67-7.73,19.29-19.91,31l-4.62,4.27v.17h25.95v6.49Z" transform="translate(-225.95 -426.41)"/></svg>