<svg id="Layer_1" data-name="Layer 1" xmlns="http://www.w3.org/2000/svg" viewBox="0 0 306.92 167.89"><defs><style>.cls-1{fill:#5c1a00;}</style></defs><title>kaffebønner</title><path class="cls-1" d="M314.19,469.87C305.35,457.82,296.44,438,300,419.35c8.17-43.35,10.73-44.47,2.59-78.19s-26-28.78-26-28.78c-48.52,28.48-26,113.78-26,113.78S257,460.9,286,473.85s28.2-4,28.2-4l-.2-.18C313.86,469.59,314.1,469.79,314.19,469.87Z" transform="translate(-245.34 -310.84)"/><path class="cls-1" d="M314,469.69l.2.18h0C314.1,469.79,313.86,469.59,314,469.69Z" transform="translate(-245.34 -310.84)"/><path class="cls-1" d="M314.19,469.87Z" transform="translate(-245.34 -310.84)"/><path class="cls-1" d="M302,319.87l-.21-.17h0C301.86,319.78,302.1,320,302,319.87Z" transform="translate(-245.34 -310.84)"/><path class="cls-1" d="M301.77,319.7h0C301.72,319.65,301.73,319.67,301.77,319.7Z" transform="translate(-245.34 -310.84)"/><path class="cls-1" d="M330,315.72c-29-13-28.2,4-28.2,4l.21.17c.12.11-.12-.09-.21-.17,8.84,12.05,17.76,31.87,14.24,50.52-8.17,43.35-10.72,44.47-2.58,78.19s26,28.78,26,28.78c48.52-28.48,26-113.78,26-113.78S359,328.67,330,315.72Z" transform="translate(-245.34 -310.84)"/><path class="cls-1" d="M425.5,311.94l-.2-.17h0Z" transform="translate(-245.34 -310.84)"/><path class="cls-1" d="M425.3,311.77Z" transform="translate(-245.34 -310.84)"/><path class="cls-1" d="M377.21,419.44c24.57-4.05,28.29-4.49,48.82-18.38,23.36-15.8,14.52-28,14.52-28-19.1-15.51-44.86-10.69-64.59-2.92a77.68,77.68,0,0,1,2.64,18.92A186.81,186.81,0,0,1,377.21,419.44Z" transform="translate(-245.34 -310.84)"/><path class="cls-1" d="M454.08,421.08l0,.21h0C454.07,421.2,454.1,421,454.08,421.08Z" transform="translate(-245.34 -310.84)"/><path class="cls-1" d="M454.05,421.29h0C454,421.35,454.05,421.33,454.05,421.29Z" transform="translate(-245.34 -310.84)"/><path class="cls-1" d="M552.26,348h0C552.27,347.94,552.26,348,552.26,348Z" transform="translate(-245.34 -310.84)"/><path class="cls-1" d="M453.23,414.71c1.6-25.78-11.07-20.34-11.07-20.34l-.08.2c0,.12,0-.11.08-.2-6.66,10.16-19.22,22.6-34.43,25.24s-24.2,3.84-31.34,5.62c-2.73,17.36-8.53,37.53-20.71,52.34C389,482.17,427,455.29,427,455.29S451.63,440.49,453.23,414.71Z" transform="translate(-245.34 -310.84)"/><path class="cls-1" d="M552.23,348.21l0-.22h0C552.24,348.09,552.21,348.34,552.23,348.21Z" transform="translate(-245.34 -310.84)"/></svg>