<svg id="Layer_1" data-name="Layer 1" xmlns="http://www.w3.org/2000/svg" viewBox="0 0 176.53 122.18"><defs><style>.cls-1{fill:#efd40f;}.cls-2{fill:#efd415;}.cls-3{fill:#efd41a;}.cls-4{fill:#efd41c;}</style></defs><title>meat</title><path class="cls-1" d="M263.45,395c-20.34,0-37.33-3.6-50.82-10.8-18.25-9.74-22.81-22.56-23-23.1l-.07-.27a31.52,31.52,0,0,1,0-14.33c4.23-18.68,15.27-42.44,43.8-49.7,13.84-3.52,27-2,35.66-.08,9.71,2.14,18.23,5.85,21.19,9.23,7.24,8.24,30.11,22.66,32.84,24.37,28.65,9,42.4,18.36,42.05,28.7-.61,17.63-43.72,28.37-48.64,29.54Q287.06,395,263.45,395Zm-69-35.42c.48,1.22,5.15,12.13,21,20.44,28.43,14.9,70,10.21,99.94,3.66,17.08-4.06,44.39-14.4,44.75-24.83.15-4.34-4.7-13.2-38.84-23.85l-.31-.1-.27-.16c-1.06-.66-26.08-16.22-34.22-25.49-3.72-4.24-28-13.67-51.87-7.6-21,5.33-34.47,20.82-40.16,46l0,.15A26.51,26.51,0,0,0,194.4,359.54Z" transform="translate(-188.76 -294.65)"/><path class="cls-2" d="M257,380.87c-22.37,0-26-1.59-42.18-10.7a26.67,26.67,0,0,1-13.29-17.61,35.27,35.27,0,0,1,5-26.73c7.76-11.27,33.32-28.33,51.82-22.45a9.35,9.35,0,0,1,5.61,5c1.44,2.89,1.84,6.58,1.2,11,.87-1.54,1.63-2.91,2.17-3.87l.16-.25c.14-.2,3.62-4.89,9.3-5.6,3.65-.46,7.26.79,10.75,3.69,10.18,8.49,19.63,31.37,10.14,50.59-.72,1.75-7.62,16.62-35,16.85Zm-7-73.72c-15.21,0-33.47,12.92-39.4,21.52a30.47,30.47,0,0,0-4.24,22.76,21.53,21.53,0,0,0,10.87,14.38c16.68,9.39,19,10.25,45.32,10,24.86-.21,30.25-13.21,30.47-13.76l.09-.23c8.13-16.32.34-37-8.81-44.61-2.37-2-4.69-2.84-6.89-2.57a9.72,9.72,0,0,0-5.85,3.49c-1.16,2.08-8,14.3-9.74,16.78-1.28,1.8-2.67,2.46-4.13,1.93s-2.12-1.92-2-3.88l0-.43.18-.4c5.74-13,4.73-19,3.61-21.36a4.64,4.64,0,0,0-2.56-2.61l-.13,0A22.21,22.21,0,0,0,250,307.15Z" transform="translate(-188.76 -294.65)"/><path class="cls-3" d="M322.44,377.32c-4.86,0-8.59-1.23-11.38-3.74-3.58-3.22-5.38-8.49-5.49-16.11-.17-11.1,8.56-16.3,13.2-17.5l.14,0c16.85-3.33,29.27,6.42,31.89,10.35,2.28,3.42,3.47,10.7.43,13.73-2,2-12.58,12-25.86,13.17C324.35,377.28,323.37,377.32,322.44,377.32ZM320,344.83c-.9.25-9.54,3-9.39,12.56.09,6.15,1.35,10.23,3.84,12.48,2.23,2,5.67,2.77,10.51,2.34,11.56-1,21-9.95,22.78-11.72.69-.87.37-5.28-1.06-7.43C345.6,351.5,335.22,341.86,320,344.83Z" transform="translate(-188.76 -294.65)"/><path class="cls-4" d="M271.24,416.83c-41.08,0-62.11-14.1-66.68-17.59-14.42-11-15-37.81-15.06-38.95l5-.08c0,.25.6,25.51,13.1,35.06,5.49,4.19,36.15,24.55,100,13.15,54.1-9.66,53.46-25.72,52.49-50l5-.2c1.1,27.73-1.05,45.23-56.61,55.15A212.07,212.07,0,0,1,271.24,416.83Z" transform="translate(-188.76 -294.65)"/></svg>