<svg id="组_123" data-name="组 123" xmlns="http://www.w3.org/2000/svg" width="479.266" height="480.666" viewBox="0 0 479.266 480.666">
  <g id="组_51" data-name="组 51" transform="translate(327.965 303.149)">
    <g id="组_50" data-name="组 50" transform="translate(0)">
      <g id="组_49" data-name="组 49">
        <path id="路径_24" data-name="路径 24" d="M501.684,349.567l-.219,44.258L417.1,404.72l-.1-.837,83.619-10.8.219-42.784-83.505-12.122.114-.827Z" transform="translate(-417 -337.35)" fill="#650e0f"/>
      </g>
    </g>
  </g>
  <g id="组_54" data-name="组 54" transform="translate(327.552 355.972)">
    <g id="组_53" data-name="组 53" transform="translate(0 0)">
      <g id="组_52" data-name="组 52" transform="translate(0)">
        <rect id="矩形_60" data-name="矩形 60" width="30.072" height="0.837" transform="translate(0 19.457) rotate(-40.315)" fill="#650e0f"/>
      </g>
    </g>
  </g>
  <g id="组_57" data-name="组 57" transform="translate(327.112 296.15)">
    <g id="组_56" data-name="组 56" transform="translate(0 0)">
      <g id="组_55" data-name="组 55" transform="translate(0)">
        <rect id="矩形_61" data-name="矩形 61" width="0.837" height="29.93" transform="matrix(0.672, -0.741, 0.741, 0.672, 0, 0.62)" fill="#650e0f"/>
      </g>
    </g>
  </g>
  <g id="组_60" data-name="组 60" transform="translate(348.483 315.803)">
    <g id="组_59" data-name="组 59">
      <g id="组_58" data-name="组 58">
        <path id="路径_25" data-name="路径 25" d="M453.1,351l-.209,42.09-14.309-.342.219-42.09Z" transform="translate(-438.58 -350.66)" fill="#650e0f"/>
      </g>
    </g>
  </g>
  <g id="组_63" data-name="组 63" transform="translate(251.367 239.299)">
    <g id="组_62" data-name="组 62" transform="translate(0 0)">
      <g id="组_61" data-name="组 61">
        <rect id="矩形_62" data-name="矩形 62" width="0.846" height="166.744" transform="matrix(0.296, -0.955, 0.955, 0.296, 0, 0.808)" fill="#650e0f"/>
      </g>
    </g>
  </g>
  <g id="组_66" data-name="组 66" transform="translate(221.043 382.889)">
    <g id="组_65" data-name="组 65" transform="translate(0)">
      <g id="组_64" data-name="组 64">
        <path id="路径_26" data-name="路径 26" d="M498.238,422.019,304.844,496.872l-.3-.789,185.711-71.877L329.612,468.2l-.228-.818,168.6-46.159Z" transform="translate(-304.54 -421.22)" fill="#650e0f"/>
      </g>
    </g>
  </g>
  <g id="组_122" data-name="组 122">
    <g id="组_71" data-name="组 71" transform="translate(0 191.699)">
      <g id="组_68" data-name="组 68" transform="translate(0.418 0.418)">
        <g id="组_67" data-name="组 67">
          <path id="路径_27" data-name="路径 27" d="M72.49,363.9A144.065,144.065,0,1,0,217.281,220.57,144.071,144.071,0,0,0,72.49,363.9Zm279.161,4.231q.029-5.049.048-10.1Q351.684,363.079,351.651,368.127Z" transform="translate(-72.488 -220.568)" fill="#df928e"/>
        </g>
      </g>
      <g id="组_70" data-name="组 70">
        <g id="组_69" data-name="组 69">
          <path id="路径_28" data-name="路径 28" d="M361.014,365.348C360.6,445.012,295.459,509.5,215.795,509.093S71.641,443.538,72.05,363.875,137.6,219.721,217.269,220.13,361.413,285.684,361.014,365.348ZM72.887,363.884c-.4,79.207,63.71,143.973,142.908,144.372s143.973-63.71,144.372-142.908-63.71-143.973-142.908-144.372S73.286,284.677,72.887,363.884Zm279.637-5.733-.047,10.1h-.837l.048-10.1Z" transform="translate(-72.048 -220.128)" fill="#df928e"/>
        </g>
      </g>
    </g>
    <g id="组_97" data-name="组 97" transform="translate(280.209 293.546)">
      <g id="组_76" data-name="组 76" transform="translate(7.15 2.558)">
        <g id="组_73" data-name="组 73" transform="translate(0.019)">
          <g id="组_72" data-name="组 72">
            <path id="路径_29" data-name="路径 29" d="M374.738,413.245l32.8.162.428-83.3-33.657-.171Z" transform="translate(-374.31 -329.94)" fill="#df928e"/>
          </g>
        </g>
        <g id="组_75" data-name="组 75">
          <g id="组_74" data-name="组 74">
            <path id="路径_30" data-name="路径 30" d="M408.8,330.111l-.428,84.142-33.657-.171-.428-84.142Zm-1.264,83.3.418-82.459-32.811-.171.428,82.459Z" transform="translate(-374.29 -329.94)" fill="#df928e"/>
          </g>
        </g>
      </g>
      <g id="组_81" data-name="组 81" transform="translate(8.405 0.038)">
        <g id="组_78" data-name="组 78" transform="translate(0.011 0.006)">
          <g id="组_77" data-name="组 77" transform="translate(0 0)">
            <rect id="矩形_63" data-name="矩形 63" width="88.344" height="2.52" transform="translate(0 88.344) rotate(-89.708)" fill="#650e0f"/>
          </g>
        </g>
        <g id="组_80" data-name="组 80">
          <g id="组_79" data-name="组 79">
            <path id="路径_31" data-name="路径 31" d="M379.432,327.309l-.456,89.19-3.366-.019.456-89.19Zm-1.284,88.344.447-87.508-1.683-.01-.447,87.508Z" transform="translate(-375.61 -327.29)" fill="#650e0f"/>
          </g>
        </g>
      </g>
      <g id="组_86" data-name="组 86" transform="translate(36.176 0.18)">
        <g id="组_83" data-name="组 83" transform="translate(0.007 0)">
          <g id="组_82" data-name="组 82" transform="translate(0)">
            <rect id="矩形_64" data-name="矩形 64" width="88.344" height="2.52" transform="translate(0 88.344) rotate(-89.708)" fill="#650e0f"/>
          </g>
        </g>
        <g id="组_85" data-name="组 85" transform="translate(0 0.001)">
          <g id="组_84" data-name="组 84">
            <path id="路径_32" data-name="路径 32" d="M408.642,327.459l-.456,89.19-3.366-.019.456-89.19ZM407.349,415.8,407.8,328.3l-1.683-.009-.447,87.508Z" transform="translate(-404.82 -327.44)" fill="#650e0f"/>
          </g>
        </g>
      </g>
      <g id="组_91" data-name="组 91" transform="translate(40.388 0.209)">
        <g id="组_88" data-name="组 88" transform="translate(0.834 0.84)">
          <g id="组_87" data-name="组 87" transform="translate(0 0)">
            <rect id="矩形_65" data-name="矩形 65" width="88.344" height="6.731" transform="translate(7.182 0.034) rotate(90.292)" fill="#650e0f"/>
          </g>
        </g>
        <g id="组_90" data-name="组 90">
          <g id="组_89" data-name="组 89">
            <path id="路径_33" data-name="路径 33" d="M417.274,327.508l-.456,89.191-7.568-.038.456-89.191Zm-1.293,88.335.447-87.508-5.885-.029-.447,87.508Z" transform="translate(-409.25 -327.47)" fill="#650e0f"/>
          </g>
        </g>
      </g>
      <g id="组_96" data-name="组 96" transform="translate(0)">
        <g id="组_93" data-name="组 93" transform="translate(0.008 0.004)">
          <g id="组_92" data-name="组 92" transform="translate(0 0)">
            <rect id="矩形_66" data-name="矩形 66" width="88.344" height="6.731" transform="translate(0 88.344) rotate(-89.708)" fill="#650e0f"/>
          </g>
        </g>
        <g id="组_95" data-name="组 95">
          <g id="组_94" data-name="组 94">
            <path id="路径_34" data-name="路径 34" d="M374.794,327.288l-.456,89.19-7.568-.038.456-89.19ZM373.5,415.632l.447-87.508-5.885-.029-.447,87.508Z" transform="translate(-366.77 -327.25)" fill="#650e0f"/>
          </g>
        </g>
      </g>
    </g>
    <g id="组_119" data-name="组 119" transform="translate(409.759 287.761)">
      <g id="组_100" data-name="组 100" transform="translate(10.115 3.122)">
        <g id="组_99" data-name="组 99" transform="translate(0 0)">
          <g id="组_98" data-name="组 98" transform="translate(0)">
            <rect id="矩形_67" data-name="矩形 67" width="94.239" height="51.322" transform="translate(0 94.239) rotate(-89.708)" fill="#ffeac0"/>
          </g>
        </g>
      </g>
      <g id="组_105" data-name="组 105" transform="translate(0 1.393)">
        <g id="组_102" data-name="组 102" transform="translate(0.851 0.008)">
          <g id="组_101" data-name="组 101" transform="translate(0 0)">
            <rect id="矩形_68" data-name="矩形 68" width="98.441" height="8.414" transform="translate(0 98.441) rotate(-89.708)" fill="#650e0f"/>
          </g>
        </g>
        <g id="组_104" data-name="组 104">
          <g id="组_103" data-name="组 103">
            <path id="路径_35" data-name="路径 35" d="M512.785,322.678l-.5,99.288-9.251-.048.5-99.288Zm-1.341,98.441.5-97.995-8.214,97.956Z" transform="translate(-503.03 -322.63)" fill="#650e0f"/>
          </g>
        </g>
      </g>
      <g id="组_108" data-name="组 108" transform="translate(60.591 1.699)">
        <g id="组_107" data-name="组 107" transform="translate(0 0)">
          <g id="组_106" data-name="组 106" transform="translate(0)">
            <rect id="矩形_69" data-name="矩形 69" width="98.441" height="8.414" transform="translate(0 98.441) rotate(-89.708)" fill="#650e0f"/>
          </g>
        </g>
      </g>
      <g id="组_113" data-name="组 113" transform="translate(8.097 1)">
        <g id="组_110" data-name="组 110" transform="translate(0.827 0.433)">
          <g id="组_109" data-name="组 109">
            <path id="路径_36" data-name="路径 36" d="M515.042,321.686l-.086,16.648-.01.941-.076,15.193-.01,1.455-.076,15.155-.009.989-.076,15.516-.01,1.093-.076,14.946-.01,1.559-.086,16.039a8.334,8.334,0,0,0,1.093.076,8.865,8.865,0,0,0,3.87-16.866,8.863,8.863,0,0,0-.456-16.277,8.861,8.861,0,0,0-.057-16.553,8.862,8.862,0,0,0,.646-16.372,8.859,8.859,0,0,0-.542-16.4,8.864,8.864,0,0,0-2.947-17.209A10.207,10.207,0,0,0,515.042,321.686Z" transform="translate(-514.52 -321.62)" fill="#df928e"/>
          </g>
        </g>
        <g id="组_112" data-name="组 112">
          <g id="组_111" data-name="组 111">
            <path id="路径_37" data-name="路径 37" d="M522.967,324.659a9.393,9.393,0,0,1-3.28,14.157,9.27,9.27,0,0,1,.4,16.391,9.271,9.271,0,0,1-.523,16.363,9.342,9.342,0,0,1,5.1,8.329,9.234,9.234,0,0,1-5.068,8.224,9.229,9.229,0,0,1,4.982,8.281,9.348,9.348,0,0,1-4.649,8,9.333,9.333,0,0,1,2.748,13.577,8.165,8.165,0,0,1-4.069,2.966,8.564,8.564,0,0,1-4.583.656l-.371-.048.513-100.267.371-.048a9.111,9.111,0,0,1,3.033.133A8.332,8.332,0,0,1,522.967,324.659ZM517.4,338.8l3.432-1.236a1.2,1.2,0,0,0,.485-.333c6.085-7.045,1.169-15.184-5.648-15.222-.209,0-.428.01-.666.029l-.5,98.765c1.807.171,2.624-.285,5.315-1.16a1.223,1.223,0,0,0,.418-.238c5.648-4.972,3.708-12.208-1.388-14.642l-.8-.38.808-.38c5.125-2.386,7.131-9.612,1.512-14.651a1.084,1.084,0,0,0-.361-.219l-2.577-1.027,2.7-1.046a1.219,1.219,0,0,0,.38-.238c5.771-5.324,3.328-12.8-2.139-14.87l-1.055-.4,2.881-1.055a1.306,1.306,0,0,0,.4-.238c5.543-5.125,3.546-12.312-1.6-14.68l-.837-.39.846-.38a8.437,8.437,0,0,0-.513-15.621Z" transform="translate(-513.65 -321.165)" fill="#df928e"/>
          </g>
        </g>
      </g>
      <g id="组_192" data-name="组 192" transform="translate(49.097 1)">
        <g id="组_110-2" data-name="组 110" transform="translate(0.827 0.433)">
          <g id="组_109-2" data-name="组 109">
            <path id="路径_36-2" data-name="路径 36" d="M515.042,321.686l-.086,16.648-.01.941-.076,15.193-.01,1.455-.076,15.155-.009.989-.076,15.516-.01,1.093-.076,14.946-.01,1.559-.086,16.039a8.334,8.334,0,0,0,1.093.076,8.865,8.865,0,0,0,3.87-16.866,8.863,8.863,0,0,0-.456-16.277,8.861,8.861,0,0,0-.057-16.553,8.862,8.862,0,0,0,.646-16.372,8.859,8.859,0,0,0-.542-16.4,8.864,8.864,0,0,0-2.947-17.209A10.207,10.207,0,0,0,515.042,321.686Z" transform="translate(-514.52 -321.62)" fill="#df928e"/>
          </g>
        </g>
        <g id="组_112-2" data-name="组 112">
          <g id="组_111-2" data-name="组 111">
            <path id="路径_37-2" data-name="路径 37" d="M522.967,324.659a9.393,9.393,0,0,1-3.28,14.157,9.27,9.27,0,0,1,.4,16.391,9.271,9.271,0,0,1-.523,16.363,9.342,9.342,0,0,1,5.1,8.329,9.234,9.234,0,0,1-5.068,8.224,9.229,9.229,0,0,1,4.982,8.281,9.348,9.348,0,0,1-4.649,8,9.333,9.333,0,0,1,2.748,13.577,8.165,8.165,0,0,1-4.069,2.966,8.564,8.564,0,0,1-4.583.656l-.371-.048.513-100.267.371-.048a9.111,9.111,0,0,1,3.033.133A8.332,8.332,0,0,1,522.967,324.659ZM517.4,338.8l3.432-1.236a1.2,1.2,0,0,0,.485-.333c6.085-7.045,1.169-15.184-5.648-15.222-.209,0-.428.01-.666.029l-.5,98.765c1.807.171,2.624-.285,5.315-1.16a1.223,1.223,0,0,0,.418-.238c5.648-4.972,3.708-12.208-1.388-14.642l-.8-.38.808-.38c5.125-2.386,7.131-9.612,1.512-14.651a1.084,1.084,0,0,0-.361-.219l-2.577-1.027,2.7-1.046a1.219,1.219,0,0,0,.38-.238c5.771-5.324,3.328-12.8-2.139-14.87l-1.055-.4,2.881-1.055a1.306,1.306,0,0,0,.4-.238c5.543-5.125,3.546-12.312-1.6-14.68l-.837-.39.846-.38a8.437,8.437,0,0,0-.513-15.621Z" transform="translate(-513.65 -321.165)" fill="#df928e"/>
          </g>
        </g>
      </g>
    </g>
    <g id="组_121" data-name="组 121" transform="translate(427.31)">
      <g id="组_120" data-name="组 120">
        <path id="路径_40" data-name="路径 40" d="M521.49,18.5" transform="translate(-521.49 -18.5)" fill="#df928e" stroke="#df928e" stroke-miterlimit="10" stroke-width="1"/>
      </g>
    </g>
  </g>
</svg>
